PathFileType	4	(X/Y/Z)	Patient4_TMGait_0pt5_02_right_38.trc.trc
DataRate	CameraRate	NumFrames	NumMarkers	Units	OrigDataRate	OrigDataStartFrame	OrigNumFrames
76.086956521739	76.086956521739	4	33	mm	76.086956521739	106	       141
Frame#	Time	Sacral			L.Shoulder			Chest			R.Shoulder			Neck			R.ASIS			L.ASIS			R.Thigh.Superior			R.Thigh.Lateral			R.Thigh.Inferior			R.Patella			L.Thigh.Superior			L.Thigh.Lateral			L.Thigh.Inferior			L.Patella			L.Shank.Superior			L.Shank.Lateral			L.Shank.Inferior			R.Shank.Superior			R.Shank.Lateral			R.Shank.Inferior			R.Heel			R.Midfoot.Superior			R.Midfoot.Lateral			R.Toe			L.Heel			L.Midfoot.Lateral			L.Midfoot.Superior			L.Toe			L.Elbow			L.Wrist			R.Elbow			R.Wrist			
		X1	Y1	Z1	X2	Y2	Z2	X3	Y3	Z3	X4	Y4	Z4	X5	Y5	Z5	X6	Y6	Z6	X7	Y7	Z7	X8	Y8	Z8	X9	Y9	Z9	X10	Y10	Z10	X11	Y11	Z11	X12	Y12	Z12	X13	Y13	Z13	X14	Y14	Z14	X15	Y15	Z15	X16	Y16	Z16	X17	Y17	Z17	X18	Y18	Z18	X19	Y19	Z19	X20	Y20	Z20	X21	Y21	Z21	X22	Y22	Z22	X23	Y23	Z23	X24	Y24	Z24	X25	Y25	Z25	X26	Y26	Z26	X27	Y27	Z27	X28	Y28	Z28	X29	Y29	Z29	X30	Y30	Z30	X31	Y31	Z31	X32	Y32	Z32	X33	Y33	Z33	

106	51.020000000000	710.856042637911	1017.414910980367	424.970165382862	923.250115364970	1427.860098106166	234.192749766501	1007.022919452803	1363.188175013073	407.745787296425	911.392218346325	1450.178586886226	569.794766314395	914.136399308908	1497.958151422023	380.778928515292	929.730114474096	955.867783518990	555.825195907809	933.190541624235	960.514375107575	282.318675079029	1018.858612264691	793.655486985635	530.455296377635	987.442769071318	671.550928773515	605.156424224243	1079.457771438845	635.352887429772	527.747492919807	1107.662049676977	526.629645842613	551.820720188192	970.975297280073	749.232735113831	314.533197641557	880.700851756347	637.879341975072	255.100513453009	959.330323799000	557.802247709602	322.485107546685	955.938076640697	488.431810739005	333.432941289671	929.370607984152	417.787516390876	324.931652278488	840.583915600773	303.591438931764	271.856531938408	887.766540571899	193.721141964136	347.572793583081	1043.175380645867	443.662869667770	559.726527825381	932.210246609556	384.800049807984	623.559153050486	934.191241338887	275.112511855699	574.846647842609	745.747253260815	177.966017401206	553.667594037498	923.216246482787	152.583874545984	585.902154734193	817.809146819737	131.035014511797	625.156874179251	1009.792979288906	55.658681450825	610.959266804739	756.624252329946	38.208753446602	388.107786305446	833.919223016291	34.757486135762	309.833452937501	915.463952574189	96.247677451114	339.291719815226	1045.260850305795	45.667390048515	317.304575703573	981.315566236877	1083.517201625681	106.799105446043	1171.951378229003	903.792162736714	104.366301435828	801.266986696144	1125.993195935256	696.889981243191	816.020184105991	864.898084691033	717.644602174924	
107	51.033142857143	710.106253010895	1017.711036132574	424.193424391678	924.588768128770	1427.826865783608	234.540590212939	1006.958496944961	1363.155158815470	408.759721593959	910.121267273198	1450.336135929257	570.017530349695	914.292038574258	1497.970792766328	381.078400778946	928.229598917256	956.180064913823	556.340663389318	933.140723104067	960.550960378237	282.870715792836	1017.721715961572	794.649642669267	530.522033113841	987.033437334874	672.460457858692	605.343226786357	1078.577952401448	636.453103353745	527.566394425177	1108.296048482540	529.649036114839	551.738977592883	969.009186723613	748.368647734644	315.946369409324	878.172984580299	637.757208566323	255.363783104213	955.203110916598	557.010412245931	323.604354661998	951.022264868298	487.774884739367	334.534978346748	924.398427171401	417.335865860540	325.712536533639	835.631856935731	303.443840907146	272.020807409982	881.686199417753	193.426276575870	348.106492311518	1047.873795669483	444.952782776554	560.228797371254	941.259093901150	380.185123018935	625.342754791645	948.877522338150	270.755967798380	576.605825864142	766.218643671425	163.637347870006	557.301833776868	944.831894881489	147.547426837330	587.800399956923	841.273391410396	120.502002137624	628.091374089103	1036.581103060585	55.308053470021	611.982272068521	749.987848309965	38.172294155591	388.134450646028	827.285521575026	34.749576053957	309.877680867062	908.849967161865	96.169905304357	339.462501113182	1038.659040424309	45.547850745829	317.350198104017	985.184960484701	1084.768640890744	105.973937371775	1183.476090260375	913.296973376282	104.183495329786	790.262307817306	1130.140324012762	696.419028810875	792.743244010854	869.258048038053	720.522003179725	
108	51.046285714286	709.416056500892	1017.921208252944	423.456429900624	925.973501052894	1427.695361639245	235.067462241647	1006.970868000318	1362.984249777116	409.912538690174	908.992522444319	1450.379977509841	570.379629411166	914.553039949121	1497.866568442845	381.554536660953	926.735203226711	956.269622276754	557.003517629775	933.165006726980	960.499707731093	283.522371013645	1016.148431226393	794.931478566174	530.827380075765	985.658985330837	672.776941057178	605.742932330588	1076.664666184162	636.671841574572	527.655367118276	1107.660971570081	532.048633463139	551.862652852533	967.140876657418	747.488005955636	317.416075072381	875.802765137349	637.582525327841	255.623027569542	951.247437512448	556.196309064205	324.694462764412	946.303127883059	487.073338166261	335.578826981192	919.583816866875	416.815835306501	326.459438826786	830.777178245816	303.266828785598	272.177364543644	875.635096796715	193.089342838455	348.633040045987	1051.680135753782	445.878106354836	560.887415669496	950.070385349728	375.069788953865	627.223617907240	963.778967999760	266.309449266846	578.339443746746	788.009212761160	148.920372629285	560.696388481079	967.251040481316	142.735080975643	589.571833901357	865.948525755757	109.921062889807	630.765185752003	1064.183152638140	55.741749460427	612.793990514087	743.363447225110	38.136497995162	388.150889265796	820.651120492813	34.738351191601	309.915144036520	902.234567580571	96.091886285968	339.631739425461	1032.054953707424	45.432317645869	317.399389474210	988.657974379751	1085.903523850802	105.214516489609	1194.183406168149	922.983743852937	104.256406861760	779.872346422993	1134.333445366411	695.938645517441	770.956311816838	874.243151923013	723.014065537049	
109	51.059428571429	708.801719796918	1018.038711072816	422.774758025244	927.390428221661	1427.473869897754	235.771352698921	1007.058225841753	1362.680280227589	411.194187539920	908.018302917335	1450.308673788429	570.879490112085	914.914789042136	1497.650774386824	382.205368589122	925.272805008015	956.136426367891	557.808747998342	933.264674615911	960.358674173729	284.262411957271	1014.142215006254	794.472478917655	531.398685748227	983.300641793374	672.491143632361	606.385901630212	1073.725704347661	636.008919216188	528.047760566554	1105.767058909560	533.808715682350	552.187742154641	965.378005962922	746.592822357397	318.924853432305	873.610209948117	637.348278633993	255.892834308273	947.500761785387	555.356800329329	325.756967944779	941.822351693767	486.319269562205	336.566318477093	914.956481569218	416.220017946419	327.176867649323	826.030655968893	303.064663387190	272.338584462583	869.628303355820	192.708137283255	349.148427380591	1054.554893328670	446.485634106906	561.699032491902	958.572265036404	369.629943116228	629.168920262377	978.727900926327	262.000042257032	580.003264466960	810.930703954351	134.257909478743	563.744891607599	990.217757929304	138.405285475557	591.162414164448	891.570618534463	99.653779999045	633.084471053175	1092.222271664683	57.159815805390	613.348653820681	736.750107240463	38.106467280922	388.154051053111	814.017021550629	34.726316562978	309.945717266036	895.620307597709	96.013803978655	339.798826004243	1025.448393025871	45.318579743546	317.451410701752	991.790392383013	1086.927023820145	104.537224604385	1204.043683985016	932.761353932438	104.590896278826	770.177843857508	1138.499142393550	695.474326417965	750.757826808536	879.617169671568	725.141646606923	
